<?xml version="1.0" encoding="UTF-8" standalone="no"?>
<!-- Created with Inkscape (http://www.inkscape.org/) -->

<svg
   xmlns:dc="http://purl.org/dc/elements/1.1/"
   xmlns:cc="http://creativecommons.org/ns#"
   xmlns:rdf="http://www.w3.org/1999/02/22-rdf-syntax-ns#"
   xmlns:svg="http://www.w3.org/2000/svg"
   xmlns="http://www.w3.org/2000/svg"
   xmlns:sodipodi="http://sodipodi.sourceforge.net/DTD/sodipodi-0.dtd"
   xmlns:inkscape="http://www.inkscape.org/namespaces/inkscape"
   width="744.09448819"
   height="1052.3622047"
   id="svg2"
   version="1.1"
   inkscape:version="0.48.3.1 r9886"
   sodipodi:docname="test.svg">
  <defs
     id="defs4" />
  <sodipodi:namedview
     id="base"
     pagecolor="#ffffff"
     bordercolor="#666666"
     borderopacity="1.0"
     inkscape:pageopacity="0.0"
     inkscape:pageshadow="2"
     inkscape:zoom="0.24748738"
     inkscape:cx="1286.8336"
     inkscape:cy="260.94294"
     inkscape:document-units="px"
     inkscape:current-layer="layer1"
     showgrid="false"
     inkscape:window-width="1301"
     inkscape:window-height="744"
     inkscape:window-x="65"
     inkscape:window-y="24"
     inkscape:window-maximized="1" />
  <metadata
     id="metadata7">
    <rdf:RDF>
      <cc:Work
         rdf:about="">
        <dc:format>image/svg+xml</dc:format>
        <dc:type
           rdf:resource="http://purl.org/dc/dcmitype/StillImage" />
      </cc:Work>
    </rdf:RDF>
  </metadata>
  <g
     inkscape:label="Layer 1"
     inkscape:groupmode="layer"
     id="layer1">
    <rect
       style="opacity:0.5;fill:#ff7f2a"
       id="mainarea"
       width="900"
       height="900"
       x="0"
       y="152.3622047" />
    <rect
       style="opacity:0.5;fill:#ff7f2a"
       id="cornerTLY"
       width="2"
       height="40"
       x="-1"
       y="113.3622047" />
    <rect
       style="opacity:0.5;fill:#ff7f2a"
       id="cornerTLX"
       width="40"
       height="2"
       x="-39"
       y="151.3622047" />
    <rect
       style="opacity:0.5;fill:#ff7f2a"
       id="cornerTRY"
       width="2"
       height="40"
       x="899"
       y="113.3622047" />
    <rect
       style="opacity:0.5;fill:#ff7f2a"
       id="cornerTRX"
       width="40"
       height="2"
       x="899"
       y="151.3622047" />
    <rect
       style="opacity:0.5;fill:#ff7f2a"
       id="cornerBLY"
       width="2"
       height="40"
       x="-1"
       y="1051.3622047" />
    <rect
       style="opacity:0.5;fill:#ff7f2a"
       id="cornerBLX"
       width="40"
       height="2"
       x="-39"
       y="1051.3622047" />
    <rect
       style="opacity:0.5;fill:#ff7f2a"
       id="cornerBRY"
       width="2"
       height="40"
       x="899"
       y="1051.3622047" />
    <rect
       style="opacity:0.5;fill:#ff7f2a"
       id="cornerBRX"
       width="40"
       height="2"
       x="899"
       y="1051.3622047" />
    <path
       style="fill:#ff0000;stroke:none;stroke-width:1px;stroke-linecap:butt;stroke-linejoin:miter;stroke-opacity:1;fill-opacity:0.19607843000000000"
       d="M 288.90363,254.34168 145.46197,468.49402 240.4163,712.95093 444.46712,708.91032 612.15244,506.87981 z"
       id="path2991"
       inkscape:connector-curvature="0" />
    <path
       style="fill:none;stroke:#000000;stroke-width:1px;stroke-linecap:butt;stroke-linejoin:miter;stroke-opacity:1"
       d="m 351.53308,458.39249 c 0,0 92.93403,-40.4061 4.04061,68.69038 -88.89342,109.09647 -113.13708,28.28427 -113.13708,28.28427 z"
       id="path2992"
       inkscape:connector-curvature="0" />
    <path
       style="fill:none;stroke:#ff0000;stroke-width:1px;stroke-linecap:butt;stroke-linejoin:miter;stroke-opacity:1"
       d="M 351.53308,458.39249 0,0 92.93403,-40.4061 4.04061,68.69038 -88.89342,109.09647 -113.13708,28.28427 -113.13708,28.28427 z"
       id="path2993"
       inkscape:connector-curvature="0" />
    <path
       style="fill:none;stroke:#00ff00;stroke-width:1px;stroke-linecap:butt;stroke-linejoin:miter;stroke-opacity:1"
       d="m 351.53308,458.39249 q 0,0 92.93403,-40.4061 4.04061,68.69038 -88.89342,109.09647 -113.13708,28.28427 -113.13708,28.28427 z"
       id="path2994"
       inkscape:connector-curvature="0" />
    <path
       style="fill:none;stroke:#0000ff;stroke-width:1px;stroke-linecap:butt;stroke-linejoin:miter;stroke-opacity:1"
       d="m 351.53308,458.39249 t 0,0 92.93403,-40.4061 4.04061,68.69038 -88.89342,109.09647 -113.13708,28.28427 -113.13708,28.28427 z"
       id="path2995"
       inkscape:connector-curvature="0" />
    <path
       style="fill:none;stroke:#aaaaaa;stroke-width:1px;stroke-linecap:butt;stroke-linejoin:miter;stroke-opacity:1"
       d="m 351.53308,458.39249 l 0,0 92.93403,-40.4061 4.04061,68.69038 -88.89342,109.09647 -113.13708,28.28427 -113.13708,28.28427 z"
       id="path2996"
       inkscape:connector-curvature="0" />
<polygon points="220,100       300,210 170,250 123,234"
style="fill:#cccccc;
stroke:#000000;stroke-width:1"/>
    <path
       style="fill:none;stroke:#aaaaaa;stroke-width:1px;stroke-linecap:butt;stroke-linejoin:miter;stroke-opacity:1"
       d="M 220,100 300,210 170,250 123,234 z"
       id="path2997"
       inkscape:connector-curvature="0" />
  </g>
</svg>
